#tb 0: 1/25
0,          0,          0,        1,    89780, 3e91243736f0d8c96ec01e53e1a0ca1a
0,          1,          1,        1,    89692, 29e8beef70f920150f3405328130c1f4
0,          2,          2,        1,    90912, 8ef86647ae9006cb888248b346091603
0,          3,          3,        1,    89568, 9af0abff68a9e66adf177e626c88477d
0,          4,          4,        1,    88552, 7149af41c6213afb224d5e483b6a0771
0,          5,          5,        1,    90188, 7a8818cdf4c5cfb961a84e6f0affb333
0,          6,          6,        1,    90220, 10a59f9d437355a7cfcc87800ad58f55
0,          7,          7,        1,    89432, e7ade031b0cfe8ba5720ca82c0b5134a
0,          8,          8,        1,    89892, 21b4ae6db7817caec958caa6d993d08e
0,          9,          9,        1,    90404, 90fda92c74b423705233620283ff11b0
0,         10,         10,        1,    90028, efa74c6cea3e5b4795a570e4ecec8359
0,         11,         11,        1,    90056, ac9426560a82c563184be68c9a044245
0,         12,         12,        1,    89116, 523dfd6c2d8732b4c709270648bd3fc6
0,         13,         13,        1,    89820, d6829b4ac96790f3b38d54465afc281c
0,         14,         14,        1,    90720, b2d2130e5a677a292c6ac5ee715fb08b
0,         15,         15,        1,    90900, fd63286afaa80474c069910091c48d82
0,         16,         16,        1,    89892, dce4344b86b6f6452da8e5c582817bbb
0,         17,         17,        1,    89896, b4b4afffba0a9b93b8677695b0246096
0,         18,         18,        1,    89172, c842bcea2ae28737b696b7066f032c21
0,         19,         19,        1,    88920, a90e2a3326ad821a972ed5663e4db3dd
0,         20,         20,        1,    88380, f6e80319224d2d1164f8c92465434d83
0,         21,         21,        1,    88508, 5338f8602eb21ec8c98f9a94c614c6ae
0,         22,         22,        1,    88636, b5342f8831e4c75755097230ea56caf4
0,         23,         23,        1,    89764, 6cdfe5b2789b960cd24592f0d4c8e450
0,         24,         24,        1,    90252, 317353d115124d89d7648b9381221fe9
0,         25,         25,        1,    89500, add22cae4aaec687340ad45cf7adfd1a
0,         26,         26,        1,    89036, 0a2b14e5ceec26f9498d1caea1767870
0,         27,         27,        1,    88676, b0978d633f9f1aacbf1bfd1a779e654a
0,         28,         28,        1,    87092, a5aed642ca45d403a89b12d9405128e1
0,         29,         29,        1,    87168, bbf30ee8918be97766c50219886b2045
0,         30,         30,        1,    88084, 5913cbc1c3adebb6f9f230b24f3a3eee
0,         31,         31,        1,    89056, 9f86fd1126923de5bbcf57b3e4c19824
0,         32,         32,        1,    89372, fb6b14b16c900523dad7c8be2969776e
0,         33,         33,        1,    90372, 7c95a49abadaa5914d71a3b8ccd069fc
0,         34,         34,        1,    89732, 7d7ad876e67daa9aafa88e5117c5db2a
0,         35,         35,        1,    89264, c546830ac81b57f4284fd9567687adbf
0,         36,         36,        1,    88692, 640a270b1c421f5864264a22c4dcef61
0,         37,         37,        1,    89044, b46a8cdedadd85dadc999bb71e9c9a1b
0,         38,         38,        1,    88672, 5a906c0ecf4d818fe8baccbaa0fd306e
0,         39,         39,        1,    88492, 80ce9360ac56c79cce311392db8fcf76
0,         40,         40,        1,    87372, 34e03634ebdf41d5faeb93a8322feec5
0,         41,         41,        1,    88896, edff2238d908325809b07b542b6f95d7
0,         42,         42,        1,    88604, 575ac8566e144c94c5c09cbaae333262
0,         43,         43,        1,    88424, a42e08d0624a5fbb91aee7c1030c442c
0,         44,         44,        1,    87932, eee99a04e2934a541a6bad33ccd64c38
0,         45,         45,        1,    86916, 37ba014aa01c2cf100e719e67bec00c1
0,         46,         46,        1,    86316, e5b94ffcb55d82d2fd5a3a31084b00fe
0,         47,         47,        1,    86428, 96cea3d74a0c8ff2702ca2bbccf9ec6e
0,         48,         48,        1,    86228, 1390793cf7369b808abfefb53affb800
0,         49,         49,        1,    85284, 89d0772c948e95af1f78ae2a0dd341c8
